<svg width="239" height="38" viewBox="0 0 239 38" fill="none" xmlns="http://www.w3.org/2000/svg">
<path d="M4.4 36.96C2.2 36.96 0.2 35.88 0.2 33.64V7.92C0.2 5 1.48 1.92 5.84 1.24C7.44 1.04 9.48 1.04 10.24 1.04H15.36C23.88 1.04 29.2 5.72 29.2 13.52C29.2 21.04 24.52 26.24 15.24 26.24H8.64V33.64C8.64 35.88 6.64 36.96 4.4 36.96ZM4.56 35.36C3.08 35.24 2.48 34.68 2.48 33H1.48C1.44 35.12 3.24 35.8 4.52 35.72L4.56 35.36ZM15.28 19.12C19.32 19.12 20.88 16.32 20.88 13.56C20.88 10.28 19.16 8.08 15.12 8.16H10.88C9.32 8.16 8.64 8.68 8.64 10.08V19.12H15.28ZM2.88 7.24C2.88 6.64 2.96 5.88 3.12 5.4C3.52 4.04 4.36 3.04 5.84 2.76L5.76 2.44C4 2.72 2.88 3.76 2.24 5.16C1.92 5.84 1.76 6.88 1.76 7.24H2.88ZM37.9975 37C35.7975 37 33.8375 35.88 33.8375 33.64V7.96C33.8375 5.08 35.0775 1.96 39.4375 1.32C41.0375 1.08 43.1175 1.08 43.8775 1.08H48.5175C56.8375 1.08 61.9575 5.24 61.9575 12.44C61.9575 17.44 59.8775 21.12 55.2375 22.84L61.3575 31.4C62.3175 32.96 61.9575 35.08 59.8775 36.44C59.1175 36.88 58.3575 37.08 57.6375 37.08C56.2375 37.08 54.9975 36.4 54.3975 35.44L46.7975 24.04H42.2775V33.64C42.2775 35.88 40.2375 37 37.9975 37ZM38.1575 35.4C36.6775 35.24 36.1175 34.72 36.1175 33H35.0775C35.0375 35.12 36.8375 35.8 38.1175 35.76L38.1575 35.4ZM58.9175 35.76C60.3175 35 61.3975 33.16 60.3975 31.92L59.6375 32.52C60.6375 33.72 59.5575 34.8 58.6775 35.52L58.9175 35.76ZM36.4775 7.32C36.4775 6.72 36.5575 5.96 36.7175 5.44C37.1175 4.08 37.9575 3.08 39.4375 2.84L39.3575 2.48C37.5975 2.8 36.4775 3.84 35.8375 5.24C35.5575 5.92 35.3975 6.92 35.3975 7.32H36.4775ZM48.4375 16.88C52.2375 16.88 53.6775 15 53.6775 12.48C53.6775 9.12 51.7575 8.24 48.2775 8.24H44.5175C42.9175 8.24 42.2775 8.72 42.2775 10.12V16.88H48.4375ZM77.2919 36.92H77.1319C73.5719 36.92 69.8519 35.52 67.6919 31.72C65.6919 28.2 65.2519 23.48 65.4119 19.84C65.6519 13.32 67.1719 9.84 69.8119 6.52C72.9319 2.68 77.6519 0.479997 84.3319 0.479997H84.9719C91.0919 0.479997 96.1319 2.6 99.4519 6.72C102.132 10 103.572 14.56 103.572 20.04C103.572 26.68 101.532 31.28 97.8519 34.04C95.6919 35.68 92.7319 36.6 89.8519 36.76C89.3319 36.8 88.6919 36.84 87.9719 36.84C86.8119 36.84 85.5719 36.76 84.8519 36.56V34.36C87.2919 34.36 90.3719 33.68 92.2119 30.72C94.0919 27.6 94.6519 23.96 94.6519 20.84C94.6519 17.68 93.8519 14.48 92.5719 12.52C90.6119 9.48 88.0519 8.28 84.4519 8.24H84.2919C80.8919 8.24 78.5319 9.6 76.8519 12C75.3319 14.16 74.4919 17.28 74.2919 20.96C74.1319 23.56 74.4519 27.48 75.6119 30.32C76.7319 33.12 78.1319 33.96 79.3319 33.96C79.5719 33.96 79.7719 33.96 80.0119 33.88C81.4919 33.48 82.2119 30.36 80.9319 25.2C80.6519 24.04 80.0519 21.8 79.6519 20.04C79.3319 18 80.0119 16.68 81.6119 16.68H81.6919C82.9319 16.72 83.8519 17.8 83.8919 20.52C84.2519 17.48 85.4119 16.24 87.0119 16.44C88.7719 16.68 89.4519 18.88 88.4519 22.92C87.4119 26.88 86.0519 30.48 84.7319 32.56C82.3719 36.28 80.0919 36.88 77.2919 36.92ZM80.7719 20.24C80.2919 18.92 80.9319 18.2 81.7719 18.48L81.7319 17.52C80.7719 17.36 79.8919 18.36 80.4519 20.32L80.7719 20.24ZM69.6919 12.84C70.0919 9.44 72.3719 6.2 73.4519 5.4L73.2919 5.04C71.1719 6.28 68.7719 10.36 68.2919 12.8L69.6919 12.84ZM112.728 37.28C110.488 37.28 108.808 36.2 108.808 33.92V5.28C108.808 3.04 109.808 0.919999 112.848 0.919999C114.968 0.919999 116.048 1.68 117.048 3.48L126.928 20.64L136.728 3.48C137.768 1.6 138.888 0.919999 140.928 0.919999C143.968 0.919999 144.968 3.04 144.968 5.28V33.92C144.968 36.2 143.288 37.28 141.048 37.28C138.848 37.28 137.128 36.2 137.128 33.92V17.72L130.528 28.56C129.648 30.04 128.048 30.52 126.928 30.52C125.688 30.52 124.168 29.96 123.328 28.56L116.648 17.68V33.92C116.648 36.2 114.928 37.28 112.728 37.28ZM112.608 35.68C111.128 35.52 110.808 35 110.808 33.52H109.808C109.768 35.64 111.328 36.12 112.608 36.04V35.68ZM140.928 35.68C139.448 35.52 139.168 35 139.168 33.52H138.128C138.088 35.64 139.648 36.12 140.928 36.04V35.68ZM110.128 5.68H110.528V4.84C110.528 4.28 111.168 3.12 112.648 3.2V2.2C111.088 2.16 110.128 3.52 110.128 4.56V5.68ZM137.888 4.68C138.248 3.64 139.008 3 139.888 3C140.208 3 140.528 3.08 140.848 3.24L141.168 2.28C140.848 2.12 140.488 2.04 140.168 2.04C139.048 2.04 138.008 2.92 137.488 4.48L137.888 4.68ZM156.506 36.92C152.986 36.92 151.586 35.36 151.586 32.48V5.64C151.586 2.52 153.426 1.08 156.506 1.08H173.386C175.266 1.08 176.546 2.16 176.546 4.8C176.546 7.4 175.066 8.56 173.386 8.56H161.466C160.226 8.56 159.666 8.92 159.666 10.4V15.04H172.426C174.306 15.04 175.546 16 175.546 18.64C175.546 21.24 174.106 22.24 172.426 22.24H159.666V27.36C159.666 28.84 160.346 29.44 161.786 29.44H173.826C175.706 29.44 176.986 30.56 176.986 33.16C176.986 35.8 175.506 36.92 173.826 36.92H156.506ZM155.266 34.6C153.786 34.64 153.146 33.56 153.146 32.64V32.04H152.746V33.08C152.746 34.36 153.706 35.52 155.266 35.48V34.6ZM152.906 6.32H153.266V5.48C153.266 4.6 153.906 3.04 156.186 3.16V2.24C153.466 2.16 152.906 3.84 152.906 5.32V6.32ZM186.589 36.92C183.069 36.92 181.669 35.36 181.669 32.48V5.64C181.669 2.52 183.509 1.08 186.589 1.08H203.469C205.349 1.08 206.629 2.16 206.629 4.8C206.629 7.4 205.149 8.56 203.469 8.56H191.549C190.309 8.56 189.749 8.92 189.749 10.4V15.04H202.509C204.389 15.04 205.629 16 205.629 18.64C205.629 21.24 204.189 22.24 202.509 22.24H189.749V27.36C189.749 28.84 190.429 29.44 191.869 29.44H203.909C205.789 29.44 207.069 30.56 207.069 33.16C207.069 35.8 205.589 36.92 203.909 36.92H186.589ZM185.349 34.6C183.869 34.64 183.229 33.56 183.229 32.64V32.04H182.829V33.08C182.829 34.36 183.789 35.52 185.349 35.48V34.6ZM182.989 6.32H183.349V5.48C183.349 4.6 183.989 3.04 186.269 3.16V2.24C183.549 2.16 182.989 3.84 182.989 5.32V6.32ZM223.752 36.92C220.632 36.92 219.032 35.68 219.032 33.56V8.84H212.512C210.392 8.84 209.192 7.12 209.192 4.92C209.192 2.76 210.192 1.04 212.512 1.04H234.952C237.272 1.04 238.272 2.76 238.272 4.92C238.272 7.12 237.072 8.84 234.952 8.84H228.392V33.56C228.392 35.68 226.912 36.92 223.752 36.92ZM222.632 34.56C221.392 34.6 220.552 33.96 220.552 33.04V32.44H220.152V33.48C220.152 34.56 221.072 35.48 222.632 35.44V34.56ZM210.672 4.64C210.712 3.44 211.432 2.84 212.832 2.84H213.352V2H212.632C211.192 2 210.232 3 210.272 4.64H210.672Z" fill="#497E64"/>
</svg>
