<svg width="60" height="60" viewBox="0 0 60 60" fill="none" xmlns="http://www.w3.org/2000/svg">
<rect width="60" height="60" fill="white"/>
<rect x="5" y="6" width="50" height="50" rx="10" fill="white"/>
<path d="M30 11C30.7594 11 31.387 11.5643 31.4863 12.2965L31.5 12.5L31.4981 16.0754C38.5856 16.7751 44.2248 22.4144 44.9264 29.5051L45 29.5H48.5C49.3284 29.5 50 30.1716 50 31C50 31.7594 49.4357 32.387 48.7035 32.4863L48.5 32.5L44.9233 32.4981C44.2249 39.5856 38.5856 45.2248 31.4949 45.9264L31.5 46V49.5C31.5 50.3284 30.8284 51 30 51C29.2406 51 28.613 50.4357 28.5137 49.7035L28.5 49.5L28.5019 45.9233C21.4144 45.2249 15.7751 39.5856 15.0736 32.4949L15 32.5H11.5C10.6716 32.5 10 31.8284 10 31C10 30.2406 10.5643 29.613 11.2965 29.5137L11.5 29.5L15.0754 29.5019C15.7751 22.4144 21.4144 16.7751 28.5051 16.0736L28.5 16V12.5C28.5 11.6716 29.1716 11 30 11ZM30 19C23.3726 19 18 24.3726 18 31C18 37.6274 23.3726 43 30 43C36.6274 43 42 37.6274 42 31C42 24.3726 36.6274 19 30 19ZM30 23C34.4183 23 38 26.5817 38 31C38 35.4183 34.4183 39 30 39C25.5817 39 22 35.4183 22 31C22 26.5817 25.5817 23 30 23Z" fill="#848A94"/>
</svg>
