<svg width="50" height="50" viewBox="0 0 50 50" fill="none" xmlns="http://www.w3.org/2000/svg">
<rect width="50" height="50" rx="10" fill="white"/>
<path d="M25 11C25.5316 11 25.9709 11.395 26.0404 11.9075L26.05 12.05L26.0487 14.5528C31.0099 15.0426 34.9574 18.9901 35.4485 23.9535L35.5 23.95H37.95C38.5299 23.95 39 24.4201 39 25C39 25.5316 38.605 25.9709 38.0925 26.0404L37.95 26.05L35.4463 26.0487C34.9574 31.0099 31.0099 34.9574 26.0465 35.4485L26.05 35.5V37.95C26.05 38.5299 25.5799 39 25 39C24.4684 39 24.0291 38.605 23.9596 38.0925L23.95 37.95L23.9513 35.4463C18.9901 34.9574 15.0426 31.0099 14.5515 26.0465L14.5 26.05H12.05C11.4701 26.05 11 25.5799 11 25C11 24.4684 11.395 24.0291 11.9075 23.9596L12.05 23.95L14.5528 23.9513C15.0426 18.9901 18.9901 15.0426 23.9535 14.5515L23.95 14.5V12.05C23.95 11.4701 24.4201 11 25 11ZM25 16.6C20.3608 16.6 16.6 20.3608 16.6 25C16.6 29.6392 20.3608 33.4 25 33.4C29.6392 33.4 33.4 29.6392 33.4 25C33.4 20.3608 29.6392 16.6 25 16.6ZM25 19.4C28.0928 19.4 30.6 21.9072 30.6 25C30.6 28.0928 28.0928 30.6 25 30.6C21.9072 30.6 19.4 28.0928 19.4 25C19.4 21.9072 21.9072 19.4 25 19.4Z" fill="#848A94"/>
</svg>
