<svg width="13" height="18" viewBox="0 0 13 18" fill="none" xmlns="http://www.w3.org/2000/svg">
<path d="M0.625 0C0.970175 0 1.25 0.279825 1.25 0.625V2.16667L2.68389 1.87989C4.05933 1.6048 5.48508 1.7357 6.78742 2.25664L6.95717 2.32453C8.25808 2.84491 9.69 2.94209 11.0493 2.60225C11.6804 2.44449 12.2917 2.92178 12.2917 3.57224V9.71142C12.2917 10.2483 11.9262 10.7163 11.4053 10.8466L11.2267 10.8913C9.752 11.2599 8.19875 11.1545 6.78742 10.59C5.48508 10.069 4.05933 9.93817 2.68389 10.2133L1.25 10.5V17.2917C1.25 17.6368 0.970175 17.9167 0.625 17.9167C0.279825 17.9167 0 17.6368 0 17.2917V0.625C0 0.279825 0.279825 0 0.625 0Z" fill="#FFB1F8"/>
</svg>
