<svg width="16" height="14" viewBox="0 0 16 14" fill="none" xmlns="http://www.w3.org/2000/svg">
<path d="M13.3333 2.66667H10.6667V0H0V5.33333C0.0177333 8.2788 2.41987 10.6521 5.36533 10.6344C7.246 10.6231 8.9816 9.62213 9.93333 8H13.3333C14.8061 8 16 6.80613 16 5.33333C16 3.86053 14.8061 2.66667 13.3333 2.66667ZM13.3333 6.66667H10.48C10.5983 6.23187 10.6611 5.78387 10.6667 5.33333V4H13.3333C14.0697 4 14.6667 4.59693 14.6667 5.33333C14.6667 6.06973 14.0697 6.66667 13.3333 6.66667ZM10.6667 12.6667C10.6667 13.0348 10.3681 13.3333 10 13.3333H0.666667C0.298533 13.3333 0 13.0348 0 12.6667C0 12.2985 0.298533 12 0.666667 12H10C10.3681 12 10.6667 12.2985 10.6667 12.6667Z" fill="#FF8B38"/>
</svg>
