<svg width="12" height="15" viewBox="0 0 12 15" fill="none" xmlns="http://www.w3.org/2000/svg">
<path d="M5.09684 0C4.74203 0 4.45438 0.222181 4.45438 0.496226V3.37926H3.51211V0.496226C3.51211 0.222181 3.22445 0 2.86965 0C2.51484 0 2.22719 0.222181 2.22719 0.496226V3.37926H1.28492V0.496226C1.28492 0.222181 0.997266 0 0.642461 0C0.287656 0 0 0.222181 0 0.496226V4.78431C0 5.66416 0.934805 6.38969 2.07391 6.38969H2.22719V14.5038C2.22719 14.7778 2.51484 15 2.86965 15C3.22445 15 3.51211 14.7778 3.51211 14.5038V6.38969H3.66219C4.80125 6.38969 5.7393 5.6641 5.7393 4.78431V0.496226C5.7393 0.222181 5.45164 0 5.09684 0Z" fill="#B67000"/>
<path d="M10.1075 0.222098C9.66074 -0.0298547 9.06234 -0.0705187 8.56122 0.115868C8.06009 0.302255 7.73926 0.677753 7.73926 1.09588V14.5182C7.73926 14.7843 8.02812 15 8.38442 15C8.74072 15 9.02959 14.7843 9.02959 14.5182V8.5023H11.0813C11.4376 8.5023 11.7393 8.27174 11.7393 8.0056V2.65954C11.7393 1.70713 11.1252 0.795936 10.1075 0.222098Z" fill="#B67000"/>
</svg>
