<svg width="102" height="129" viewBox="0 0 102 129" fill="none" xmlns="http://www.w3.org/2000/svg">
<path d="M51.029 129C76.1123 103.2 101.196 80.0975 101.196 51.6C101.196 23.1021 78.7353 0 51.029 0C23.3227 0 0.862305 23.1021 0.862305 51.6C0.862305 80.0975 25.9456 103.2 51.029 129Z" fill="#FFB1F8"/>
<path d="M36.8507 31.1379C37.8917 31.1379 38.7355 31.9818 38.7355 33.0228V37.6721L43.0598 36.8073C47.2079 35.9777 51.5076 36.3724 55.4352 37.9435L55.9471 38.1482C59.8704 39.7176 64.1887 40.0106 68.2882 38.9858C70.1914 38.51 72.0348 39.9494 72.0348 41.911V60.4254C72.0348 62.0447 70.9328 63.456 69.3618 63.8489L68.823 63.9836C64.3757 65.0954 59.6915 64.7775 55.4352 63.0751C51.5076 61.5038 47.2079 61.1093 43.0598 61.9389L38.7355 62.8036V83.2858C38.7355 84.3268 37.8917 85.1707 36.8507 85.1707C35.8097 85.1707 34.9658 84.3268 34.9658 83.2858V33.0228C34.9658 31.9818 35.8097 31.1379 36.8507 31.1379Z" fill="white"/>
</svg>
