<svg width="102" height="129" viewBox="0 0 102 129" fill="none" xmlns="http://www.w3.org/2000/svg">
<path d="M51.0978 129C76.1812 103.2 101.264 80.0975 101.264 51.6C101.264 23.1021 78.8041 0 51.0978 0C23.3916 0 0.931152 23.1021 0.931152 51.6C0.931152 80.0975 26.0145 103.2 51.0978 129Z" fill="#FF8B38"/>
<path d="M73.5864 44.1862H64.9864V35.5862H30.5864V52.7862C30.6436 62.2853 38.3905 69.9393 47.8896 69.8821C53.9548 69.8456 59.5521 66.6176 62.6214 61.3862H73.5864C78.3362 61.3862 82.1864 57.536 82.1864 52.7862C82.1864 48.0364 78.3362 44.1862 73.5864 44.1862ZM73.5864 57.0862H64.3844C64.7658 55.684 64.9684 54.2392 64.9864 52.7862V48.4862H73.5864C75.9613 48.4862 77.8864 50.4113 77.8864 52.7862C77.8864 55.1611 75.9613 57.0862 73.5864 57.0862ZM64.9864 76.4362C64.9864 77.6234 64.0237 78.5862 62.8364 78.5862H32.7364C31.5492 78.5862 30.5864 77.6234 30.5864 76.4362C30.5864 75.249 31.5492 74.2862 32.7364 74.2862H62.8364C64.0237 74.2862 64.9864 75.249 64.9864 76.4362Z" fill="white"/>
</svg>
