<svg width="101" height="129" viewBox="0 0 101 129" fill="none" xmlns="http://www.w3.org/2000/svg">
<path d="M50.1667 129C75.25 103.2 100.333 80.0975 100.333 51.6C100.333 23.1021 77.873 0 50.1667 0C22.4604 0 0 23.1021 0 51.6C0 80.0975 25.0833 103.2 50.1667 129Z" fill="#B67000"/>
<path d="M46.8417 31.9208C45.5421 31.9208 44.4884 32.7346 44.4884 33.7384V44.2988H41.037V33.7384C41.037 32.7346 39.9833 31.9208 38.6837 31.9208C37.384 31.9208 36.3304 32.7346 36.3304 33.7384V44.2988H32.8789V33.7384C32.8789 32.7346 31.8253 31.9208 30.5256 31.9208C29.226 31.9208 28.1724 32.7346 28.1724 33.7384V49.4453C28.1724 52.6682 31.5965 55.3257 35.7689 55.3257H36.3304V85.047C36.3304 86.0508 37.384 86.8646 38.6837 86.8646C39.9833 86.8646 41.037 86.0508 41.037 85.047V55.3257H41.5867C45.759 55.3257 49.195 52.6679 49.195 49.4453V33.7384C49.195 32.7346 48.1413 31.9208 46.8417 31.9208Z" fill="white"/>
<path d="M65.1953 32.7343C63.5588 31.8114 61.3669 31.6625 59.5313 32.3452C57.6957 33.0279 56.5205 34.4033 56.5205 35.9349V85.0997C56.5205 86.0744 57.5786 86.8646 58.8837 86.8646C60.1888 86.8646 61.2469 86.0744 61.2469 85.0997V63.0641H68.762C70.0671 63.0641 71.1722 62.2195 71.1722 61.2447V41.6625C71.1722 38.1739 68.9231 34.8362 65.1953 32.7343Z" fill="white"/>
</svg>
