<svg width="102" height="129" viewBox="0 0 102 129" fill="none" xmlns="http://www.w3.org/2000/svg">
<path d="M50.9255 129C76.0088 103.2 101.092 80.0975 101.092 51.6C101.092 23.1021 78.6318 0 50.9255 0C23.2192 0 0.758789 23.1021 0.758789 51.6C0.758789 80.0975 25.8421 103.2 50.9255 129Z" fill="#709DFC"/>
<path d="M33 73.9042V44.3808C33 41.7973 33 40.5055 33.5028 39.5188C33.945 38.6507 34.6507 37.945 35.5188 37.5028C36.5055 37 37.7973 37 40.3808 37H62.5234C65.1069 37 66.3988 37 67.3855 37.5028C68.2534 37.945 68.9592 38.6507 69.4014 39.5188C69.9042 40.5055 69.9042 41.7973 69.9042 44.3808V69.2912H37.613C35.0653 69.2912 33 71.3564 33 73.9042ZM33 73.9042C33 76.452 35.0653 78.5172 37.613 78.5172H69.9042M44.5326 46.2261H58.3716M44.5326 55.4521H58.3716M67.5977 69.2912V78.5172" stroke="white" stroke-width="5.53563" stroke-linecap="round" stroke-linejoin="round"/>
</svg>
