<svg width="18" height="19" viewBox="0 0 18 19" fill="none" xmlns="http://www.w3.org/2000/svg">
<path d="M4 8.94118C4 6.61188 4 5.44724 4.76152 4.72362C5.52305 4 6.74869 4 9.2 4H11.8C14.2513 4 15.4769 4 16.2385 4.72362C17 5.44724 17 6.61188 17 8.94118V13.0588C17 15.3881 17 16.5527 16.2385 17.2764C15.4769 18 14.2513 18 11.8 18H9.2C6.74869 18 5.52305 18 4.76152 17.2764C4 16.5527 4 15.3881 4 13.0588V8.94118Z" stroke="#848A94" stroke-width="2"/>
<path d="M3.6 15C2.16406 15 1 13.8939 1 12.5294V7.58824C1 4.48251 1 2.92965 2.01536 1.96482C3.03073 1 4.66493 1 7.93333 1H11.4C12.836 1 14 2.10612 14 3.47059" stroke="#848A94" stroke-width="2"/>
</svg>
