<svg width="14" height="14" viewBox="0 0 14 14" fill="none" xmlns="http://www.w3.org/2000/svg">
<g clip-path="url(#clip0_3745_2098)">
<path fill-rule="evenodd" clip-rule="evenodd" d="M1.70696 0.293041C1.51836 0.110883 1.26575 0.0100885 1.00356 0.0123669C0.741361 0.0146453 0.490549 0.119814 0.305141 0.305222C0.119732 0.49063 0.0145635 0.741443 0.0122851 1.00364C0.0100066 1.26584 0.110801 1.51844 0.292959 1.70704L5.58596 7.00004L0.292959 12.293C0.197449 12.3853 0.121267 12.4956 0.0688577 12.6176C0.0164487 12.7396 -0.0111375 12.8709 -0.0122913 13.0036C-0.0134452 13.1364 0.0118565 13.2681 0.0621374 13.391C0.112418 13.5139 0.186671 13.6255 0.280564 13.7194C0.374457 13.8133 0.486109 13.8876 0.609005 13.9379C0.731901 13.9881 0.863581 14.0134 0.99636 14.0123C1.12914 14.0111 1.26036 13.9836 1.38236 13.9311C1.50437 13.8787 1.61471 13.8026 1.70696 13.707L6.99996 8.41404L12.293 13.707C12.4816 13.8892 12.7342 13.99 12.9964 13.9877C13.2586 13.9854 13.5094 13.8803 13.6948 13.6949C13.8802 13.5095 13.9854 13.2586 13.9876 12.9964C13.9899 12.7342 13.8891 12.4816 13.707 12.293L8.41396 7.00004L13.707 1.70704C13.8891 1.51844 13.9899 1.26584 13.9876 1.00364C13.9854 0.741443 13.8802 0.49063 13.6948 0.305222C13.5094 0.119814 13.2586 0.0146453 12.9964 0.0123669C12.7342 0.0100885 12.4816 0.110883 12.293 0.293041L6.99996 5.58604L1.70696 0.293041Z" fill="#555555"/>
</g>
<defs>
<clipPath id="clip0_3745_2098">
<rect width="14" height="14" fill="white"/>
</clipPath>
</defs>
</svg>
