<svg width="17" height="20" viewBox="0 0 17 20" fill="none" xmlns="http://www.w3.org/2000/svg">
<path d="M8.5 10C7.33125 10 6.375 9.1 6.375 8C6.375 6.9 7.33125 6 8.5 6C9.66875 6 10.625 6.9 10.625 8C10.625 9.1 9.66875 10 8.5 10ZM14.875 8.2C14.875 4.57 12.0594 2 8.5 2C4.94063 2 2.125 4.57 2.125 8.2C2.125 10.54 4.19687 13.64 8.5 17.34C12.8031 13.64 14.875 10.54 14.875 8.2ZM8.5 0C12.9625 0 17 3.22 17 8.2C17 11.52 14.1631 15.45 8.5 20C2.83687 15.45 0 11.52 0 8.2C0 3.22 4.0375 0 8.5 0Z" fill="#848A94"/>
</svg>
