<svg width="25" height="25" viewBox="0 0 25 25" fill="none" xmlns="http://www.w3.org/2000/svg">
<path d="M21.1915 17.8711H19.4752C19.358 17.8711 19.2481 17.9224 19.1749 18.0127C19.004 18.2203 18.8209 18.4204 18.628 18.6109C17.8392 19.4005 16.9048 20.0298 15.8765 20.4639C14.8112 20.9139 13.6662 21.1447 12.5098 21.1426C11.3404 21.1426 10.2076 20.9131 9.14312 20.4639C8.11486 20.0298 7.18048 19.4005 6.39166 18.6109C5.60142 17.8239 4.9713 16.8912 4.53619 15.8643C4.08453 14.7998 3.85748 13.6695 3.85748 12.5C3.85748 11.3306 4.08697 10.2002 4.53619 9.13578C4.97076 8.10795 5.59576 7.18265 6.39166 6.3892C7.18755 5.59574 8.11285 4.97074 9.14312 4.53617C10.2076 4.08695 11.3404 3.85746 12.5098 3.85746C13.6793 3.85746 14.8121 4.08451 15.8765 4.53617C16.9068 4.97074 17.8321 5.59574 18.628 6.3892C18.8209 6.58207 19.0015 6.78226 19.1749 6.98734C19.2481 7.07767 19.3604 7.12894 19.4752 7.12894H21.1915C21.3453 7.12894 21.4405 6.95805 21.355 6.82865C19.4825 3.91849 16.2061 1.99222 12.483 2.00199C6.63336 2.01664 1.94341 6.76517 2.00201 12.6075C2.0606 18.357 6.74322 22.9981 12.5098 22.9981C16.2232 22.9981 19.4849 21.0743 21.355 18.1714C21.438 18.042 21.3453 17.8711 21.1915 17.8711ZM23.3619 12.3462L19.8975 9.61185C19.7681 9.50932 19.5801 9.60209 19.5801 9.76566V11.6211H11.9141C11.8067 11.6211 11.7188 11.709 11.7188 11.8164V13.1836C11.7188 13.2911 11.8067 13.3789 11.9141 13.3789H19.5801V15.2344C19.5801 15.398 19.7706 15.4908 19.8975 15.3882L23.3619 12.6538C23.3852 12.6356 23.4041 12.6122 23.4171 12.5856C23.4301 12.5589 23.4368 12.5297 23.4368 12.5C23.4368 12.4704 23.4301 12.4411 23.4171 12.4145C23.4041 12.3878 23.3852 12.3645 23.3619 12.3462Z" fill="black"/>
</svg>
