<svg width="19" height="18" viewBox="0 0 19 18" fill="none" xmlns="http://www.w3.org/2000/svg">
<path d="M12.333 8.50195C13.0189 8.50195 13.6777 8.61857 14.2891 8.83301L14.498 8.91113C16.6371 9.75434 18.1504 11.8116 18.1504 14.2178V17.1504H12.8916V15.459H16.4336V14.2178C16.4336 11.998 14.6 10.1934 12.333 10.1934C11.8675 10.1934 11.4206 10.27 11.0039 10.4102C11.9233 11.4206 12.4834 12.7549 12.4834 14.2178V17.1504H0.849609V14.2178C0.849609 11.734 2.46224 9.6217 4.71094 8.83301L4.94238 8.75781C5.48742 8.59179 6.06684 8.50195 6.66699 8.50195C7.35281 8.50199 8.01172 8.61854 8.62305 8.83301H8.62207C8.92729 8.93998 9.22081 9.07229 9.5 9.22559C9.77909 9.07235 10.0718 8.93996 10.377 8.83301L10.6084 8.75781C11.1535 8.5917 11.7327 8.50199 12.333 8.50195ZM6.66699 10.1934C4.40006 10.1934 2.56641 11.998 2.56641 14.2178V15.459H10.7666V14.2178C10.7666 11.9981 8.93379 10.1935 6.66699 10.1934ZM12.333 0.849609C14.3693 0.849609 16.0254 2.47214 16.0254 4.47852C16.0253 5.73339 15.3767 6.83822 14.3936 7.48926L14.1924 7.61328C13.6462 7.92674 13.0105 8.10645 12.333 8.10645C11.7404 8.10639 11.1802 7.96884 10.6836 7.72461L10.4746 7.61328C10.1037 7.40039 9.77397 7.12581 9.5 6.80371C9.26537 7.07959 8.98987 7.32035 8.68262 7.51758L8.52539 7.61328C7.97931 7.92666 7.3443 8.10639 6.66699 8.10645C6.0742 8.10645 5.51339 7.96896 5.0166 7.72461L4.80762 7.61328C3.71275 6.98485 2.9747 5.81711 2.97461 4.47852C2.97461 2.47214 4.63071 0.849609 6.66699 0.849609C7.80468 0.849706 8.82271 1.35626 9.5 2.15234C10.1773 1.35626 11.1953 0.849706 12.333 0.849609ZM6.66699 2.54102C5.57366 2.54102 4.69141 3.41131 4.69141 4.47852C4.69155 5.54561 5.57375 6.41504 6.66699 6.41504C7.76005 6.41487 8.64146 5.5455 8.6416 4.47852C8.6416 3.41142 7.76013 2.54119 6.66699 2.54102ZM12.333 2.54102C11.2399 2.54119 10.3584 3.41142 10.3584 4.47852C10.3585 5.5455 11.24 6.41487 12.333 6.41504C13.4262 6.41504 14.3085 5.54561 14.3086 4.47852C14.3086 3.41131 13.4263 2.54102 12.333 2.54102Z" fill="#848A94" stroke="#848A94" stroke-width="0.3"/>
</svg>
